<svg version="1.1" id="Layer_1" xmlns="http://www.w3.org/2000/svg" xmlns:xlink="http://www.w3.org/1999/xlink" x="0px" y="0px"
	 width="100%" viewBox="0 0 652 252" enable-background="new 0 0 652 252" xml:space="preserve">
<path fill="#FFFFFF" opacity="1.000000" stroke="none" 
	d="
M488.000000,253.000000 
	C325.378143,253.000000 163.256287,253.000000 1.067217,253.000000 
	C1.067217,169.068069 1.067217,85.136070 1.067217,1.102034 
	C218.333313,1.102034 435.666656,1.102034 652.976990,1.102034 
	C652.976990,85.077087 652.976990,169.038544 652.976990,253.000000 
	C598.135986,253.000000 543.317993,253.000000 488.000000,253.000000 
M435.857819,223.985672 
	C437.154175,223.929291 438.450531,223.872910 440.705292,223.969162 
	C501.982788,223.969162 563.260254,223.969162 624.500488,223.969162 
	C624.500488,160.983902 624.500488,98.398224 624.500488,35.162498 
	C610.484253,35.162498 596.746826,35.162498 582.139954,35.009418 
	C579.799988,35.032475 577.460083,35.055534 574.168762,35.035049 
	C565.705017,35.066734 557.241272,35.098419 547.871765,35.042061 
	C470.694336,35.027420 393.516937,35.011967 316.339508,35.007195 
	C315.346588,35.007130 314.353699,35.143135 312.388611,35.082657 
	C308.139130,35.124828 303.889679,35.167004 298.758820,35.059853 
	C280.958618,35.111198 263.158417,35.162544 244.382736,35.081844 
	C199.955505,35.054737 155.528259,35.018223 111.101051,35.044716 
	C109.730392,35.045532 108.360115,35.700302 106.146088,36.044674 
	C102.845314,35.695091 99.546082,35.060944 96.243523,35.043152 
	C77.931633,34.944504 59.618942,34.989330 41.306553,35.009636 
	C40.049297,35.011028 38.792263,35.212730 37.600262,35.315655 
	C37.600262,98.371063 37.600262,161.051926 37.600262,223.872375 
	C54.187584,223.872375 70.483673,223.872375 87.741928,223.954880 
	C134.336838,223.968796 180.931763,223.993881 227.526611,223.946518 
	C229.031418,223.944992 230.535477,223.202591 232.889709,222.848694 
	C255.137802,223.160385 277.385895,223.472092 300.610931,223.917374 
	C308.170898,223.892899 315.730896,223.868439 324.186859,223.945053 
	C339.831879,223.963806 355.477020,224.027039 371.121887,223.987198 
	C383.593750,223.955444 396.065247,223.798004 409.520111,223.876831 
	C418.036621,223.903427 426.553162,223.930023 435.857819,223.985672 
z"/>
<path fill="#020202" opacity="1.000000" stroke="none" 
	d="
M86.779762,223.872375 
	C70.483673,223.872375 54.187584,223.872375 37.600262,223.872375 
	C37.600262,161.051926 37.600262,98.371063 37.600262,35.315655 
	C38.792263,35.212730 40.049297,35.011028 41.306553,35.009636 
	C59.618942,34.989330 77.931633,34.944504 96.243523,35.043152 
	C99.546082,35.060944 102.845314,35.695091 106.772293,36.343246 
	C118.623924,39.515034 126.545822,47.108910 133.813324,55.461754 
	C154.140411,78.824532 174.336594,102.301170 194.597504,125.721573 
	C204.292374,136.928268 213.842117,148.267914 223.796509,159.239853 
	C229.347733,165.358521 236.453415,168.633514 245.358215,167.980148 
	C245.358215,123.456268 245.358215,79.335083 245.358215,35.213890 
	C263.158417,35.162544 280.958618,35.111198 299.168549,35.588737 
	C299.596832,98.673004 299.615387,161.228394 299.633972,223.783783 
	C277.385895,223.472092 255.137802,223.160385 232.228958,222.542648 
	C215.372787,218.398026 200.673538,211.772232 189.654358,198.795593 
	C166.930069,172.034561 144.348907,145.152023 121.692268,118.333488 
	C113.960983,109.182037 106.251808,100.010033 98.384193,90.976616 
	C95.485275,87.648155 92.257874,84.484680 86.779762,85.300674 
	C86.779762,131.659088 86.779762,177.765732 86.779762,223.872375 
z"/>
<path fill="#010101" opacity="1.000000" stroke="none" 
	d="
M313.360779,35.215630 
	C314.353699,35.143135 315.346588,35.007130 316.339508,35.007195 
	C393.516937,35.011967 470.694336,35.027420 548.349609,35.545715 
	C548.832886,49.369675 548.933533,62.691330 548.744507,76.008865 
	C548.714966,78.093201 547.941833,80.716743 546.546509,82.151161 
	C515.211914,114.363037 483.718048,146.419922 452.308167,178.558777 
	C437.659363,193.547577 423.123810,208.647049 408.536926,223.696350 
	C396.065247,223.798004 383.593750,223.955444 371.121887,223.987198 
	C355.477020,224.027039 339.831879,223.963806 323.869995,223.609741 
	C335.889465,211.385757 348.225159,199.496460 360.562164,187.608536 
	C396.978607,152.517639 433.397797,117.429611 469.793915,82.317680 
	C470.409698,81.723656 470.748901,80.842972 471.761444,79.227943 
	C418.541962,79.227943 366.197723,79.227943 313.360779,79.227943 
	C313.360779,64.120689 313.360779,49.668159 313.360779,35.215630 
z"/>
<path fill="#E72F2F" opacity="1.000000" stroke="none" 
	d="
M583.009338,35.162498 
	C596.746826,35.162498 610.484253,35.162498 624.500488,35.162498 
	C624.500488,98.398224 624.500488,160.983902 624.500488,223.969162 
	C563.260254,223.969162 501.982788,223.969162 440.404449,223.602844 
	C448.126556,215.018661 456.085114,206.736801 464.183350,198.593842 
	C502.702026,159.862289 541.290466,121.199921 579.703918,82.364494 
	C581.537964,80.510269 582.808105,77.265488 582.871277,74.632996 
	C583.187134,61.482643 583.011902,48.320496 583.009338,35.162498 
z"/>
<path fill="#CECECE" opacity="1.000000" stroke="none" 
	d="
M312.874695,35.149143 
	C313.360779,49.668159 313.360779,64.120689 313.360779,79.227943 
	C366.197723,79.227943 418.541962,79.227943 471.761444,79.227943 
	C470.748901,80.842972 470.409698,81.723656 469.793915,82.317680 
	C433.397797,117.429611 396.978607,152.517639 360.562164,187.608536 
	C348.225159,199.496460 335.889465,211.385757 323.421997,223.559189 
	C315.730896,223.868439 308.170898,223.892899 300.122437,223.850586 
	C299.615387,161.228394 299.596832,98.673004 299.609253,35.663399 
	C303.889679,35.167004 308.139130,35.124828 312.874695,35.149143 
z"/>
<path fill="#CECECE" opacity="1.000000" stroke="none" 
	d="
M244.870483,35.147869 
	C245.358215,79.335083 245.358215,123.456268 245.358215,167.980148 
	C236.453415,168.633514 229.347733,165.358521 223.796509,159.239853 
	C213.842117,148.267914 204.292374,136.928268 194.597504,125.721573 
	C174.336594,102.301170 154.140411,78.824532 133.813324,55.461754 
	C126.545822,47.108910 118.623924,39.515034 107.194077,36.346008 
	C108.360115,35.700302 109.730392,35.045532 111.101051,35.044716 
	C155.528259,35.018223 199.955505,35.054737 244.870483,35.147869 
z"/>
<path fill="#CECECE" opacity="1.000000" stroke="none" 
	d="
M87.260849,223.913635 
	C86.779762,177.765732 86.779762,131.659088 86.779762,85.300674 
	C92.257874,84.484680 95.485275,87.648155 98.384193,90.976616 
	C106.251808,100.010033 113.960983,109.182037 121.692268,118.333488 
	C144.348907,145.152023 166.930069,172.034561 189.654358,198.795593 
	C200.673538,211.772232 215.372787,218.398026 231.804047,222.521088 
	C230.535477,223.202591 229.031418,223.944992 227.526611,223.946518 
	C180.931763,223.993881 134.336838,223.968796 87.260849,223.913635 
z"/>
<path fill="#CCCCCC" opacity="1.000000" stroke="none" 
	d="
M409.028503,223.786591 
	C423.123810,208.647049 437.659363,193.547577 452.308167,178.558777 
	C483.718048,146.419922 515.211914,114.363037 546.546509,82.151161 
	C547.941833,80.716743 548.714966,78.093201 548.744507,76.008865 
	C548.933533,62.691330 548.832886,49.369675 548.802490,35.589741 
	C557.241272,35.098419 565.705017,35.066734 574.592773,35.517830 
	C575.010681,46.490307 575.150513,56.983799 574.878540,67.466583 
	C574.822327,69.632484 573.569031,71.989021 572.285645,73.858292 
	C568.931030,78.744476 564.678894,83.092430 561.843018,88.238289 
	C557.753235,95.659599 552.297241,101.030029 544.889954,105.221657 
	C538.482666,108.847359 532.701233,113.743973 527.139832,118.642700 
	C523.306458,122.019363 520.451782,126.480972 516.930420,130.242996 
	C507.859192,139.934158 498.575684,149.427063 489.532104,159.143539 
	C475.042969,174.710724 460.441956,190.185852 446.397614,206.148071 
	C441.806030,211.366669 438.800537,217.980728 435.069672,223.956619 
	C426.553162,223.930023 418.036621,223.903427 409.028503,223.786591 
z"/>
<path fill="#363333" opacity="1.000000" stroke="none" 
	d="
M435.463745,223.971146 
	C438.800537,217.980728 441.806030,211.366669 446.397614,206.148071 
	C460.441956,190.185852 475.042969,174.710724 489.532104,159.143539 
	C498.575684,149.427063 507.859192,139.934158 516.930420,130.242996 
	C520.451782,126.480972 523.306458,122.019363 527.139832,118.642700 
	C532.701233,113.743973 538.482666,108.847359 544.889954,105.221657 
	C552.297241,101.030029 557.753235,95.659599 561.843018,88.238289 
	C564.678894,83.092430 568.931030,78.744476 572.285645,73.858292 
	C573.569031,71.989021 574.822327,69.632484 574.878540,67.466583 
	C575.150513,56.983799 575.010681,46.490307 575.068481,35.539597 
	C577.460083,35.055534 579.799988,35.032475 582.574646,35.085960 
	C583.011902,48.320496 583.187134,61.482643 582.871277,74.632996 
	C582.808105,77.265488 581.537964,80.510269 579.703918,82.364494 
	C541.290466,121.199921 502.702026,159.862289 464.183350,198.593842 
	C456.085114,206.736801 448.126556,215.018661 439.925232,223.526520 
	C438.450531,223.872910 437.154175,223.929291 435.463745,223.971146 
z"/>
</svg>